# Blender v2.80 (sub 53) OBJ File: 'banchblend.blend'
# www.blender.org
mtllib bench.mtl
o banco2.004_Cube.325
v -2.672804 0.504666 -0.670215
v -2.672804 1.019136 -0.670215
v -2.672804 0.504666 -0.018437
v -2.672804 1.019136 -0.087557
v -2.389759 0.504666 -0.670215
v -2.389759 1.019136 -0.670215
v -2.389759 0.504666 -0.018437
v -2.389759 1.019136 -0.087557
v -2.672804 -1.726284 -0.670215
v -2.672804 -1.726284 -0.018437
v -2.389759 -1.726284 -0.670215
v -2.389759 -1.726284 -0.018437
v -2.672804 0.452663 0.721526
v -2.389759 0.452663 0.721526
v -2.672804 -1.726284 0.721526
v -2.389759 -1.726284 0.721526
v -2.671850 0.410641 0.779587
v -2.394248 0.410641 0.779587
v -2.674117 -1.684262 0.779587
v -2.394248 -1.684262 0.779587
v -2.672027 0.264186 0.845942
v -2.394071 0.264186 0.845942
v -2.674294 -1.537808 0.845942
v -2.394071 -1.537808 0.845942
v -2.668638 1.066806 -0.642863
v -2.668638 1.066806 -0.114909
v -2.393924 1.066806 -0.642863
v -2.393924 1.066806 -0.114909
v -2.661566 1.114476 -0.567051
v -2.661566 1.114476 -0.190722
v -2.399107 1.114476 -0.567051
v -2.399107 1.114476 -0.190722
v -2.651933 1.149145 -0.466719
v -2.651933 1.149145 -0.291056
v -2.414407 1.149145 -0.466719
v -2.414407 1.149145 -0.291056
v -2.672804 0.641158 -0.670215
v -2.672804 0.641158 -0.076037
v -2.389759 0.641158 -0.076037
v -2.389759 0.641158 -0.670215
v -2.672804 0.448329 0.133627
v -2.672804 -1.726284 0.133627
v -2.389759 -1.726284 0.133627
v -2.389759 0.448329 0.133627
v -2.533156 -0.735404 -0.608842
v -2.533156 0.464226 -0.608842
v -2.533156 -0.735404 -0.295296
v -2.533156 0.464226 -0.295296
v 2.466137 -0.735404 -0.608842
v 2.466137 0.464226 -0.608842
v 2.466137 -0.735404 -0.295296
v 2.466137 0.464226 -0.295296
v -2.533156 -0.912217 -0.608842
v -2.533156 -0.912217 -0.295296
v 2.466137 -0.912217 -0.608842
v 2.466137 -0.912217 -0.295296
v -2.657115 0.464226 -0.657976
v -2.657115 0.464226 -0.164557
v 2.590096 0.464226 -0.657976
v 2.590096 0.464226 -0.164557
v -2.657115 0.648405 -0.657976
v -2.657115 0.648405 -0.164557
v 2.590096 0.648405 -0.657976
v 2.590096 0.648405 -0.164557
v -2.533156 -0.703074 0.745798
v 2.466137 -0.703074 0.745798
v -2.533156 -0.879542 0.760453
v 2.466137 -0.879542 0.760453
v -2.506896 -0.716681 0.789228
v 2.439877 -0.716681 0.789228
v -2.506896 -0.861974 0.801294
v 2.439877 -0.861974 0.801294
v -2.452158 -0.747839 0.820315
v 2.385139 -0.747839 0.820315
v -2.452158 -0.828147 0.826984
v 2.385139 -0.828147 0.826984
v 2.415147 0.504666 -0.670216
v 2.415147 1.019136 -0.670216
v 2.415147 0.504666 -0.018438
v 2.415147 1.019136 -0.087559
v 2.698192 0.504666 -0.670216
v 2.698192 1.019136 -0.670216
v 2.698192 0.504666 -0.018438
v 2.698192 1.019136 -0.087559
v 2.415147 -1.726284 -0.670216
v 2.415147 -1.726284 -0.018438
v 2.698192 -1.726284 -0.670216
v 2.698192 -1.726284 -0.018438
v 2.415147 0.452663 0.721525
v 2.698192 0.452663 0.721525
v 2.415147 -1.726284 0.721525
v 2.698192 -1.726284 0.721525
v 2.416100 0.410641 0.779586
v 2.693702 0.410641 0.779586
v 2.413834 -1.684262 0.779586
v 2.693702 -1.684262 0.779586
v 2.415923 0.264186 0.845940
v 2.693879 0.264186 0.845940
v 2.413656 -1.537808 0.845940
v 2.693879 -1.537808 0.845940
v 2.419313 1.066806 -0.642865
v 2.419313 1.066806 -0.114911
v 2.694026 1.066806 -0.642865
v 2.694026 1.066806 -0.114911
v 2.426384 1.114476 -0.567052
v 2.426384 1.114476 -0.190724
v 2.688843 1.114476 -0.567052
v 2.688843 1.114476 -0.190724
v 2.436017 1.149145 -0.466721
v 2.436017 1.149145 -0.291057
v 2.673544 1.149145 -0.466721
v 2.673544 1.149145 -0.291057
v 2.415147 0.641158 -0.670216
v 2.415147 0.641158 -0.076039
v 2.698192 0.641158 -0.076039
v 2.698192 0.641158 -0.670216
v 2.415147 0.448329 0.133626
v 2.415147 -1.726284 0.133626
v 2.698192 -1.726284 0.133626
v 2.698192 0.448329 0.133626
vt 0.595497 -0.044211
vt 0.511150 -0.044205
vt 0.512786 0.058480
vt 0.595497 0.058474
vt -0.103404 1.234681
vt -0.032499 1.234681
vt -0.032499 1.131904
vt -0.103404 1.131904
vt 0.679838 -0.044455
vt 0.595497 -0.044368
vt 0.595497 0.058259
vt 0.678203 0.058175
vt 1.053111 -0.571461
vt 1.124016 -0.571461
vt 1.124016 -0.674028
vt 1.053111 -0.674028
vt 0.688014 -0.081523
vt 0.688014 -0.687265
vt 0.595497 -0.687170
vt 0.595497 -0.081428
vt -0.033543 1.118597
vt -0.102361 1.118597
vt -0.387355 1.282291
vt -0.387355 1.415597
vt -0.316449 1.415597
vt -0.316449 1.282291
vt 1.053111 -0.534423
vt 1.053111 0.070960
vt 1.124016 0.070960
vt 1.124016 -0.534423
vt 0.481387 -0.687364
vt 0.397932 -0.687359
vt 0.397932 -0.095406
vt 0.481387 -0.096589
vt 0.595497 -0.081292
vt 0.595497 -0.687372
vt 0.502974 -0.687366
vt 0.502974 -0.081285
vt 0.389690 -0.675968
vt 0.389691 -0.106803
vt 0.709599 -0.096841
vt 0.793049 -0.095750
vt 0.793049 -0.687372
vt 0.709599 -0.687287
vt -0.174310 1.251199
vt -0.174310 1.131538
vt -0.245215 1.131538
vt -0.245215 1.251199
vt -0.316449 1.251190
vt -0.316449 1.130949
vt -0.387355 1.130949
vt -0.387355 1.251190
vt -0.387728 1.687372
vt -0.387684 1.648494
vt -0.457882 1.648494
vt -0.457838 1.687372
vt -0.317574 1.118597
vt -0.387684 1.118597
vt 0.801303 -0.107064
vt 0.801303 -0.675866
vt -0.174549 1.118597
vt -0.244091 1.118597
vt -0.457314 1.159245
vt -0.387684 1.159245
vt 0.810721 -0.146843
vt 0.810721 -0.636115
vt -0.457270 1.118597
vt -0.387728 1.118597
vt 0.380271 -0.636184
vt 0.380271 -0.146593
vt 0.038406 1.118597
vt 0.040178 1.132781
vt 0.105926 1.132781
vt 0.107224 1.118597
vt 0.599391 0.071295
vt 0.674332 0.071219
vt 0.516669 0.071513
vt 0.591615 0.071508
vt 1.122973 -0.687372
vt 1.054155 -0.687372
vt 0.610166 0.084348
vt 0.624450 0.094103
vt 0.649385 0.094077
vt 0.663585 0.084293
vt 0.107224 1.226160
vt 0.105926 1.209452
vt 0.040178 1.209452
vt 0.038406 1.226160
vt 0.527433 0.084603
vt 0.580855 0.084599
vt 0.102093 1.188093
vt 0.102093 1.152305
vt 0.042591 1.152305
vt 0.042591 1.188093
vt 0.541678 0.094212
vt 0.566614 0.094210
vt -0.103404 1.272507
vt -0.032499 1.272507
vt -0.174310 1.283670
vt -0.245215 1.283670
vt 0.789873 0.923721
vt 0.745364 0.923721
vt 0.745353 1.249624
vt 0.789863 1.249624
vt -0.198869 -0.687372
vt -0.198869 1.118597
vt 0.026994 1.118597
vt 0.026994 -0.687372
vt 0.530130 1.201562
vt 0.574637 1.201517
vt 0.574637 0.875796
vt 0.530130 0.875842
vt -0.424610 -0.687372
vt -0.424610 1.118597
vt -0.198869 1.118597
vt -0.198870 -0.687372
vt 0.530130 1.249570
vt 0.574637 1.249524
vt 0.829264 -0.642593
vt 0.810721 -0.687372
vt 0.810722 1.208156
vt 0.829264 1.163376
vt 0.182920 1.118597
vt 0.227391 1.118597
vt 0.227391 -0.687372
vt 0.182920 -0.687372
vt -0.457882 -0.687372
vt -0.457882 1.118597
vt 0.032925 -0.687372
vt 0.032925 1.118597
vt 0.789875 0.875687
vt 0.745366 0.875687
vt 0.210740 1.219596
vt 0.245419 1.219632
vt 0.245419 1.118633
vt 0.210740 1.118597
vt 0.873735 -0.642593
vt 0.880704 -0.687372
vt 0.880704 1.208156
vt 0.873735 1.163376
vt 0.950415 -0.687372
vt 0.880704 -0.687372
vt 0.880704 1.208155
vt 0.950415 1.208155
vt 0.210740 1.118600
vt 0.176042 1.118597
vt 0.176042 1.219603
vt 0.210740 1.219605
vt 0.985092 1.208156
vt 1.019750 1.208156
vt 1.019750 -0.687372
vt 0.985092 -0.687372
vt 0.985092 -0.687372
vt 0.985092 1.208156
vt 1.019750 -0.687372
vt 1.022714 -0.677886
vt 1.050180 -0.677886
vt 1.053111 -0.687372
vt 0.595497 0.884563
vt 0.597576 0.932504
vt 0.382351 1.192935
vt 0.380271 1.240852
vt 0.227391 1.118597
vt 0.373885 1.118597
vt 0.373885 -0.687372
vt 0.227391 -0.687372
vt 1.028867 -0.658112
vt 1.044049 -0.658112
vt 0.380271 1.109110
vt 0.380271 -0.677886
vt 1.053111 1.118597
vt 1.050181 1.109111
vt 1.022714 1.109111
vt 1.019750 1.118597
vt 0.026994 -0.677886
vt 0.026994 1.109111
vt 1.028867 1.089337
vt 1.044050 1.089337
vt 0.595497 0.737373
vt 0.511150 0.737379
vt 0.512786 0.840064
vt 0.595497 0.840058
vt -0.032499 1.234681
vt 0.038406 1.234681
vt 0.038406 1.131904
vt -0.032499 1.131904
vt 0.679838 0.737130
vt 0.595497 0.737216
vt 0.595497 0.839843
vt 0.678203 0.839759
vt 1.053111 0.186871
vt 1.124016 0.186871
vt 1.124016 0.084304
vt 1.053111 0.084304
vt 0.688014 0.700061
vt 0.688014 0.094320
vt 0.595497 0.094414
vt 0.595497 0.700156
vt 0.037363 1.118597
vt -0.031456 1.118597
vt -0.245544 1.251903
vt -0.245544 1.118597
vt -0.316449 1.118597
vt -0.316449 1.251903
vt 1.053111 0.223909
vt 1.053111 0.829293
vt 1.124016 0.829293
vt 1.124016 0.223909
vt 0.481387 0.094220
vt 0.397932 0.094225
vt 0.397932 0.686178
vt 0.481387 0.684995
vt 0.595497 0.700293
vt 0.595497 0.094212
vt 0.502974 0.094218
vt 0.502974 0.700299
vt 0.389690 0.105616
vt 0.389691 0.674782
vt 0.709599 0.684743
vt 0.793049 0.685834
vt 0.793049 0.094212
vt 0.709599 0.094297
vt -0.174310 1.151069
vt -0.174310 1.270729
vt -0.103404 1.270729
vt -0.103404 1.151069
vt -0.316449 1.283004
vt -0.316449 1.403245
vt -0.245544 1.403245
vt -0.245544 1.283004
vt 1.123265 1.398068
vt 1.123309 1.359190
vt 1.053111 1.359190
vt 1.053155 1.398068
vt -0.315325 1.415597
vt -0.245215 1.415597
vt 0.801303 0.674520
vt 0.801303 0.105718
vt -0.174071 1.283670
vt -0.104529 1.283670
vt 1.053679 0.869940
vt 1.123309 0.869940
vt 0.810721 0.634741
vt 0.810721 0.145469
vt 1.053723 0.829293
vt 1.123265 0.829293
vt 0.380271 0.145400
vt 0.380271 0.634992
vt 0.107224 1.118597
vt 0.108996 1.132781
vt 0.174744 1.132781
vt 0.176042 1.118597
vt 0.599391 0.852879
vt 0.674332 0.852803
vt 0.516669 0.853097
vt 0.591615 0.853092
vt 1.122973 0.070960
vt 1.054155 0.070960
vt 0.610166 0.865932
vt 0.624450 0.875687
vt 0.649385 0.875661
vt 0.663585 0.865878
vt 0.176042 1.226160
vt 0.174744 1.209452
vt 0.108996 1.209452
vt 0.107224 1.226160
vt 0.527433 0.866187
vt 0.580855 0.866184
vt 0.170912 1.188093
vt 0.170912 1.152305
vt 0.111409 1.152305
vt 0.111409 1.188093
vt 0.541678 0.875796
vt 0.566614 0.875795
vt -0.032499 1.272507
vt 0.038406 1.272507
vt -0.174310 1.118597
vt -0.103404 1.118597
vn -0.7071 0.0000 -0.7071
vn -0.7508 0.1408 0.6453
vn -0.6619 0.2207 0.7164
vn -0.6592 0.2104 -0.7219
vn 0.7508 0.1408 0.6453
vn 0.6619 0.2207 0.7164
vn 0.7071 0.0000 -0.7071
vn 0.6592 0.2104 -0.7219
vn 0.8083 0.4255 0.4069
vn 0.7071 -0.7071 0.0000
vn 0.5773 -0.5773 -0.5773
vn 0.6324 0.5607 0.5344
vn -0.6329 0.5623 0.5323
vn -0.7071 -0.7071 0.0000
vn -0.5773 -0.5773 -0.5773
vn -0.6419 -0.7292 0.2370
vn -0.6449 0.7285 0.2311
vn -0.7500 0.6515 0.1143
vn -0.8083 0.4255 0.4069
vn -0.6566 -0.4769 0.5844
vn -0.6525 0.4811 0.5854
vn 0.7500 0.6515 0.1143
vn 0.6477 0.7216 0.2444
vn 0.6483 -0.7202 0.2469
vn 0.6292 -0.4745 0.6155
vn 0.6635 -0.1582 0.7312
vn -0.6637 -0.1575 0.7312
vn 0.6292 0.4745 0.6155
vn -0.6633 0.1589 0.7313
vn 0.6635 0.1582 0.7312
vn -0.6329 0.5622 -0.5323
vn -0.6312 0.7159 -0.2985
vn 0.6455 0.7034 -0.2975
vn 0.6324 0.5607 -0.5344
vn 0.5048 0.8560 -0.1111
vn 0.5048 0.8560 0.1111
vn 0.6455 0.7034 0.2975
vn -0.6312 0.7159 0.2985
vn -0.5658 0.8166 -0.1139
vn -0.5658 0.8166 0.1139
vn -0.9081 0.3006 0.2914
vn -0.3015 -0.9045 0.3015
vn -0.3015 -0.9045 -0.3015
vn 0.9081 0.3006 0.2914
vn 0.3015 -0.9045 0.3015
vn 0.3015 -0.9045 -0.3015
vn 0.7036 -0.7104 0.0110
vn 0.5773 -0.5773 0.5773
vn -0.5773 -0.5773 0.5773
vn -0.7036 -0.7104 0.0110
vn 0.6937 -0.6538 0.3022
vn -0.6937 -0.6538 0.3022
vn 0.5773 0.5773 -0.5773
vn 0.5773 0.5773 0.5773
vn -0.5773 0.5773 -0.5773
vn -0.5773 0.5773 0.5773
vn 0.6933 0.6803 0.2377
vn 0.4630 0.5792 0.6709
vn 0.4647 -0.4864 0.7398
vn -0.6933 0.6803 0.2377
vn 0.1700 0.3608 0.9170
vn 0.1691 -0.2192 0.9609
vn -0.4630 0.5792 0.6709
vn -0.4647 -0.4864 0.7398
vn -0.1700 0.3608 0.9170
vn -0.1691 -0.2192 0.9609
vn -0.6329 0.5622 0.5323
usemtl madeiraclara
s 1
f 37/1/1 38/2/2 4/3/3 2/4/4
f 38/5/2 39/6/5 8/7/6 4/8/3
f 39/9/5 40/10/7 6/11/8 8/12/6
f 40/13/7 37/14/1 2/15/4 6/16/8
f 7/17/9 12/18/10 11/19/11 5/20/7
f 8/7/6 28/21/12 26/22/13 4/8/3
f 10/23/14 9/24/15 11/25/11 12/26/10
f 5/27/7 11/28/11 9/29/15 1/30/1
f 42/31/14 15/32/16 13/33/17 41/34/18
f 1/35/1 9/36/15 10/37/14 3/38/19
f 15/32/16 19/39/20 17/40/21 13/33/17
f 44/41/22 14/42/23 16/43/24 43/44/10
f 41/45/18 13/46/17 14/47/23 44/48/22
f 43/49/10 16/50/24 15/51/16 42/52/14
f 20/53/25 24/54/26 23/55/27 19/56/20
f 16/50/24 20/57/25 19/58/20 15/51/16
f 14/42/23 18/59/28 20/60/25 16/43/24
f 13/46/17 17/61/21 18/62/28 14/47/23
f 21/63/29 23/55/27 24/54/26 22/64/30
f 18/59/28 22/65/30 24/66/26 20/60/25
f 17/67/21 21/63/29 22/64/30 18/68/28
f 19/39/20 23/69/27 21/70/29 17/40/21
f 25/71/31 29/72/32 31/73/33 27/74/34
f 6/11/8 27/75/34 28/76/12 8/12/6
f 4/3/3 26/77/13 25/78/31 2/4/4
f 2/15/4 25/79/31 27/80/34 6/16/8
f 31/81/33 35/82/35 36/83/36 32/84/37
f 28/85/12 32/86/37 30/87/38 26/88/13
f 27/75/34 31/81/33 32/84/37 28/76/12
f 26/77/13 30/89/38 29/90/32 25/78/31
f 36/91/36 35/92/35 33/93/39 34/94/40
f 30/89/38 34/95/40 33/96/39 29/90/32
f 29/72/32 33/93/39 35/92/35 31/73/33
f 32/86/37 36/91/36 34/94/40 30/87/38
f 5/27/7 1/30/1 37/14/1 40/13/7
f 7/17/9 5/20/7 40/10/7 39/9/5
f 3/97/19 7/98/9 39/6/5 38/5/2
f 1/35/1 3/38/19 38/2/2 37/1/1
f 12/26/10 43/49/10 42/52/14 10/23/14
f 3/99/19 41/45/18 44/48/22 7/100/9
f 7/17/9 44/41/22 43/44/10 12/18/10
f 10/37/14 42/31/14 41/34/18 3/38/19
f 45/101/1 47/102/41 48/103/42 46/104/43
f 47/105/41 51/106/44 52/107/45 48/108/42
f 51/109/44 49/110/7 50/111/46 52/112/45
f 49/113/7 45/114/1 46/115/43 50/116/46
f 51/109/44 56/117/47 55/118/11 49/110/7
f 52/119/45 60/120/48 58/121/49 48/122/42
f 54/123/50 53/124/15 55/125/11 56/126/47
f 49/113/7 55/127/11 53/128/15 45/114/1
f 56/126/47 68/129/51 67/130/52 54/123/50
f 45/101/1 53/131/15 54/132/50 47/102/41
f 59/133/11 63/134/53 64/135/54 60/136/48
f 50/137/46 59/138/11 60/120/48 52/119/45
f 48/122/42 58/121/49 57/139/15 46/140/43
f 46/140/43 57/139/15 59/138/11 50/137/46
f 64/141/54 63/142/53 61/143/55 62/144/56
f 58/145/49 62/146/56 61/147/55 57/148/15
f 57/149/15 61/150/55 63/151/53 59/152/11
f 60/153/48 64/141/54 62/144/56 58/154/49
f 66/155/57 70/156/58 72/157/59 68/158/51
f 54/132/50 67/159/52 65/160/60 47/102/41
f 51/109/44 66/161/57 68/162/51 56/117/47
f 47/163/41 65/164/60 66/165/57 51/166/44
f 70/156/58 74/167/61 76/168/62 72/157/59
f 65/164/60 69/169/63 70/170/58 66/165/57
f 67/171/52 71/172/64 69/173/63 65/174/60
f 68/129/51 72/175/59 71/176/64 67/130/52
f 73/177/65 75/178/66 76/168/62 74/167/61
f 69/173/63 73/177/65 74/167/61 70/156/58
f 71/172/64 75/178/66 73/177/65 69/173/63
f 72/157/59 76/168/62 75/178/66 71/172/64
f 113/179/1 114/180/2 80/181/3 78/182/4
f 114/183/2 115/184/5 84/185/6 80/186/3
f 115/187/5 116/188/7 82/189/8 84/190/6
f 116/191/7 113/192/1 78/193/4 82/194/8
f 83/195/9 88/196/10 87/197/11 81/198/7
f 84/185/6 104/199/12 102/200/67 80/186/3
f 86/201/14 85/202/15 87/203/11 88/204/10
f 81/205/7 87/206/11 85/207/15 77/208/1
f 118/209/14 91/210/16 89/211/17 117/212/18
f 77/213/1 85/214/15 86/215/14 79/216/19
f 91/210/16 95/217/20 93/218/21 89/211/17
f 120/219/22 90/220/23 92/221/24 119/222/10
f 117/223/18 89/224/17 90/225/23 120/226/22
f 119/227/10 92/228/24 91/229/16 118/230/14
f 96/231/25 100/232/26 99/233/27 95/234/20
f 92/228/24 96/235/25 95/236/20 91/229/16
f 90/220/23 94/237/28 96/238/25 92/221/24
f 89/224/17 93/239/21 94/240/28 90/225/23
f 97/241/29 99/233/27 100/232/26 98/242/30
f 94/237/28 98/243/30 100/244/26 96/238/25
f 93/245/21 97/241/29 98/242/30 94/246/28
f 95/217/20 99/247/27 97/248/29 93/218/21
f 101/249/31 105/250/32 107/251/33 103/252/34
f 82/189/8 103/253/34 104/254/12 84/190/6
f 80/181/3 102/255/67 101/256/31 78/182/4
f 78/193/4 101/257/31 103/258/34 82/194/8
f 107/259/33 111/260/35 112/261/36 108/262/37
f 104/263/12 108/264/37 106/265/38 102/266/67
f 103/253/34 107/259/33 108/262/37 104/254/12
f 102/255/67 106/267/38 105/268/32 101/256/31
f 112/269/36 111/270/35 109/271/39 110/272/40
f 106/267/38 110/273/40 109/274/39 105/268/32
f 105/250/32 109/271/39 111/270/35 107/251/33
f 108/264/37 112/269/36 110/272/40 106/265/38
f 81/205/7 77/208/1 113/192/1 116/191/7
f 83/195/9 81/198/7 116/188/7 115/187/5
f 79/275/19 83/276/9 115/184/5 114/183/2
f 77/213/1 79/216/19 114/180/2 113/179/1
f 88/204/10 119/227/10 118/230/14 86/201/14
f 79/277/19 117/223/18 120/226/22 83/278/9
f 83/195/9 120/219/22 119/222/10 88/196/10
f 86/215/14 118/209/14 117/212/18 79/216/19
