# Blender v3.1.2 OBJ File: 'pulpit.blend'
# www.blender.org
o Cube.002
v -5.301959 6.714983 3.342493
v -6.114419 -1.854305 0.102609
v -4.961839 6.714983 3.342493
v -6.114419 8.209391 0.102609
v -5.301959 7.439955 3.342493
v -6.114419 -1.854305 -0.551155
v -4.961839 7.439955 3.342493
v -6.114419 8.209391 -0.551155
v -5.301959 6.714983 -3.929843
v -5.301958 -1.854305 0.102609
v -4.961839 6.714983 -3.929843
v -5.301957 8.209391 0.102609
v -5.301959 7.439955 -3.929843
v -5.301958 -1.854305 -0.551155
v -4.961839 7.439955 -3.929843
v -5.301957 8.209391 -0.551155
v -5.301957 7.439955 0.102609
v -5.301959 7.439955 0.102609
v -5.301957 7.439955 -0.551155
v -5.301959 7.439955 -0.551155
v -5.301959 6.714983 0.102609
v -5.301957 6.714983 0.102609
v -5.301957 6.714983 -0.551155
v -5.301959 6.714983 -0.551155
vt 0.625000 0.000000
vt 0.375000 0.250000
vt 0.375000 0.000000
vt 0.625000 0.250000
vt 0.375000 0.383851
vt 0.375000 0.361377
vt 0.625000 0.500000
vt 0.375000 0.750000
vt 0.375000 0.500000
vt 0.625000 1.000000
vt 0.375000 0.888623
vt 0.375000 0.866149
vt 0.258851 0.750000
vt 0.258851 0.500000
vt 0.125000 0.500000
vt 0.236377 0.750000
vt 0.125000 0.750000
vt 0.875000 0.500000
vt 0.625000 0.750000
vt 0.625000 0.000000
vt 0.375000 0.250000
vt 0.375000 0.250000
vt 0.375000 0.499999
vt 0.375000 0.250000
vt 0.375000 0.499999
vt 0.625000 0.500000
vt 0.605886 0.500000
vt 0.605886 0.500000
vt 0.375000 0.750000
vt 0.587876 0.500000
vt 0.587876 0.500000
vt 0.375000 1.000000
vt 0.375000 0.750000
vt 0.375000 0.750001
vt 0.125000 0.500000
vt 0.125000 0.750000
vt 0.125000 0.500000
vt 0.625000 0.500000
vt 0.625000 0.750000
vt 0.375000 0.361377
vt 0.375000 0.383851
vt 0.375000 0.866149
vt 0.375000 1.000000
vt 0.375000 0.888623
vt 0.236377 0.500000
vt 0.875000 0.750000
vt 0.625000 0.000000
vt 0.375000 0.500000
vt 0.375000 0.500000
vt 0.375000 0.500000
vt 0.375000 0.500000
vt 0.625000 0.500000
vt 0.375000 0.750000
vt 0.375000 0.750001
vt 0.375000 0.750000
vt 0.375000 0.750000
vt 0.375000 1.000000
vt 0.125000 0.750000
vt 0.625000 0.750000
vn 0.0000 0.0000 1.0000
vn 0.0000 1.0000 0.0000
vn 0.0000 0.0000 -1.0000
vn 0.0000 -1.0000 0.0000
vn -1.0000 0.0000 0.0000
vn 1.0000 0.0000 0.0000
vn 0.0000 0.9981 0.0624
s off
f 3/1/1 5/2/1 1/3/1
f 7/4/2 19/5/2 17/6/2
f 15/7/3 9/8/3 13/9/3
f 3/10/4 22/11/4 23/12/4
f 13/9/5 24/13/5 20/14/5
f 5/15/5 21/16/5 1/17/5
f 7/18/6 11/19/6 15/7/6
f 4/20/5 6/21/5 2/22/5
f 24/23/3 8/24/3 20/25/3
f 16/26/6 17/27/6 19/28/6
f 10/29/6 23/30/6 22/31/6
f 2/32/1 22/33/1 21/34/1
f 14/35/4 2/36/4 6/37/4
f 8/38/2 12/39/2 16/26/2
f 3/1/1 7/4/1 5/2/1
f 18/40/2 5/2/2 7/4/2
f 7/4/2 15/7/2 19/5/2
f 15/7/2 13/9/2 19/5/2
f 13/9/2 20/41/2 19/5/2
f 17/6/7 18/40/7 7/4/7
f 15/7/3 11/19/3 9/8/3
f 24/42/4 9/8/4 23/12/4
f 9/8/4 11/19/4 23/12/4
f 11/19/4 3/10/4 23/12/4
f 3/10/4 1/43/4 22/11/4
f 1/43/4 21/44/4 22/11/4
f 13/9/5 9/8/5 24/13/5
f 5/15/5 18/45/5 21/16/5
f 7/18/6 3/46/6 11/19/6
f 4/20/5 8/47/5 6/21/5
f 24/23/3 23/48/3 14/49/3
f 14/49/3 6/21/3 24/23/3
f 6/21/3 8/24/3 24/23/3
f 8/24/3 16/50/3 20/25/3
f 16/50/3 19/51/3 20/25/3
f 16/26/6 12/52/6 17/27/6
f 10/29/6 14/53/6 23/30/6
f 18/54/1 17/55/1 12/56/1
f 12/56/1 4/57/1 18/54/1
f 4/57/1 2/32/1 21/34/1
f 18/54/1 4/57/1 21/34/1
f 2/32/1 10/29/1 22/33/1
f 14/35/4 10/58/4 2/36/4
f 8/38/2 4/59/2 12/39/2
