# Blender v3.1.2 OBJ File: 'door.blend'
# www.blender.org
o Cube.003
v 0.207403 -8.887400 -1.847669
v 0.207393 -8.887400 -1.847672
v -0.165896 -8.887400 -1.884436
v -0.165896 -8.425351 -2.748871
v -0.165895 -7.803535 -3.506554
v -0.165896 -7.045854 -4.128368
v -0.165895 -6.181420 -4.590419
v -0.165896 -5.243454 -4.874947
v -0.165896 -4.775661 -4.921019
v 0.207400 -8.887400 -1.847669
v -0.165896 -9.083814 -1.236945
v 0.081074 -9.083814 -1.212622
v 0.081084 -9.083814 -1.212619
v 0.081081 -9.083814 -1.212619
v -0.207402 -8.887400 1.847669
v -0.207393 -8.887400 1.847672
v 0.165897 -8.887400 1.884436
v 0.165897 -8.425351 2.748871
v 0.165896 -7.803535 3.506554
v 0.165896 -7.045854 4.128368
v 0.165896 -6.181420 4.590419
v 0.165896 -5.243454 4.874947
v 0.165897 -4.775661 4.921019
v -0.207399 -8.887400 1.847669
v -0.204546 -9.083814 -1.233138
v 0.204546 -9.083814 1.233139
v 0.165896 -9.083814 1.236945
v -0.081083 -9.083814 1.212619
v -0.081080 -9.083814 1.212619
v -0.081074 -9.083814 1.212622
v 0.206166 -4.775661 -4.975020
v 0.125605 -4.775661 -4.975020
v -0.125605 -4.775661 4.975020
v -0.206165 -4.775661 4.975020
v -0.234954 9.083814 4.975020
v -0.234954 9.083814 -4.975020
v -0.234953 -9.083814 -1.223915
v -0.234953 -9.083814 1.165943
v -0.234953 -4.775661 -4.975020
v -0.234953 -4.775661 -4.914218
v -0.234953 -4.775661 -4.939508
v -0.234953 -8.425351 -2.742069
v -0.234953 -8.887400 -1.877634
v -0.234953 -7.803535 -3.499752
v -0.234953 -7.045854 -4.121566
v -0.234953 -6.181420 -4.583618
v -0.234953 -5.243454 -4.868145
v -0.234953 -9.036533 -1.386005
v -0.234954 -4.775661 4.975020
v -0.234954 -4.775661 4.881540
v -0.234954 -4.775661 4.972185
v -0.234953 -8.811914 1.986178
v -0.234953 -8.887400 1.839311
v -0.234953 -8.811906 1.986194
v -0.234953 -8.811889 1.986228
v -0.234953 -8.811892 1.986223
v -0.234953 -6.181420 4.550939
v -0.234953 -5.243454 4.835466
v -0.234953 -8.425351 2.709390
v -0.234953 -7.803535 3.467073
v -0.234953 -7.045854 4.088888
v 0.221998 9.083814 4.975020
v 0.221999 9.083814 -4.975020
v 0.221999 -9.083814 -1.169872
v 0.221999 -9.083814 1.227844
v 0.221999 -4.775661 -4.975020
v 0.221999 -4.775661 -4.882816
v 0.221999 -4.775661 -4.973461
v 0.221999 -9.056675 1.320883
v 0.222000 -8.847407 -1.921051
v 0.221999 -8.887400 -1.843241
v 0.222000 -8.847399 -1.921067
v 0.222000 -8.847383 -1.921099
v 0.222000 -8.847381 -1.921102
v 0.221999 -5.243454 -4.836742
v 0.221999 -6.181420 -4.552215
v 0.222000 -8.425351 -2.710666
v 0.222000 -7.803535 -3.468349
v 0.222000 -7.045854 -4.090164
v 0.221999 -4.775661 4.975020
v 0.221999 -4.775661 4.940784
v 0.221999 -4.775661 4.915493
v 0.221999 -8.425351 2.743345
v 0.221999 -8.887400 1.878910
v 0.221999 -7.803535 3.501028
v 0.221999 -7.045854 4.122842
v 0.221999 -6.181420 4.584894
v 0.221999 -5.243454 4.869421
vt 0.564940 0.252637
vt 0.438640 0.497363
vt 0.438639 0.252637
vt 0.438641 0.903774
vt 0.438640 0.844801
vt 0.564941 0.846323
vt 0.375000 0.000324
vt 0.375000 0.000324
vt 0.375000 0.000324
vt 0.530624 0.250000
vt 0.499998 0.250000
vt 0.548802 0.250000
vt 0.702504 0.918145
vt 0.700207 0.918145
vt 0.703263 0.912183
vt 0.282521 0.875000
vt 0.281250 0.875000
vt 0.281250 0.869590
vt 0.281250 0.918145
vt 0.299793 0.918145
vt 0.281250 0.875001
vt 0.281250 0.918145
vt 0.281250 0.869589
vt 0.281250 0.869587
vt 0.281251 0.869589
vt 0.281251 0.875000
vt 0.281250 0.918145
vt 0.281250 0.875000
vt 0.250000 0.625000
vt 0.262670 0.562500
vt 0.263451 0.625000
vt 0.250000 0.562500
vt 0.262554 0.532527
vt 0.250000 0.875000
vt 0.250000 0.918145
vt 0.281250 0.869587
vt 0.250000 0.812500
vt 0.267574 0.750000
vt 0.272368 0.812500
vt 0.250000 0.750000
vt 0.264946 0.687500
vt 0.250000 0.687500
vt 0.246018 0.812500
vt 0.244219 0.875000
vt 0.246871 0.750000
vt 0.247339 0.687500
vt 0.247605 0.625000
vt 0.247744 0.562500
vt 0.247765 0.532527
vt 0.250000 0.532527
vt 0.245109 0.918145
vt 0.242962 0.907759
vt 0.375000 0.000324
vt 0.375000 0.000324
vt 0.375000 0.000324
vt 0.518040 0.250000
vt 0.548802 0.250000
vt 0.499998 0.250000
vt 0.548802 0.250000
vt 0.548802 0.250000
vt 0.548802 0.250000
vt 0.548802 0.250000
vt 0.451198 0.250000
vt 0.451198 0.250000
vt 0.451198 0.250000
vt 0.451198 0.250000
vt 0.451198 0.250000
vt 0.512100 0.250000
vt 0.702938 0.918145
vt 0.698821 0.918145
vt 0.704157 0.907759
vt 0.281250 0.875000
vt 0.281250 0.864789
vt 0.283649 0.875000
vt 0.281250 0.918145
vt 0.301498 0.918145
vt 0.281250 0.875001
vt 0.281250 0.918145
vt 0.281250 0.864788
vt 0.281250 0.875000
vt 0.281250 0.864786
vt 0.281251 0.864788
vt 0.281251 0.875000
vt 0.281250 0.918145
vt 0.250000 0.625000
vt 0.263093 0.562500
vt 0.263900 0.625000
vt 0.250000 0.562500
vt 0.262973 0.532527
vt 0.250000 0.875000
vt 0.250000 0.918145
vt 0.281250 0.864786
vt 0.250000 0.812500
vt 0.268161 0.750000
vt 0.273115 0.812500
vt 0.250000 0.750000
vt 0.265445 0.687500
vt 0.250000 0.687500
vt 0.246765 0.812500
vt 0.245303 0.875000
vt 0.247458 0.750000
vt 0.247838 0.687500
vt 0.248055 0.625000
vt 0.248167 0.562500
vt 0.248184 0.532527
vt 0.244030 0.912183
vt 0.853135 0.581049
vt 0.836519 0.556687
vt 0.779175 0.535324
vt 0.225356 0.534817
vt 0.352920 0.581049
vt 0.277568 0.535108
vt 0.564942 0.497363
vt 0.443464 0.844670
vt 0.454147 0.844577
vt 0.522409 0.845175
vt 0.522410 0.845175
vt 0.522410 0.845175
vt 0.564941 0.905103
vt 0.556536 0.905330
vt 0.545853 0.905423
vt 0.477591 0.904825
vt 0.477591 0.904825
vt 0.477591 0.904825
vt 0.375000 0.000324
vt 0.375000 0.000324
vt 0.375000 0.000324
vt 0.494546 0.250000
vt 0.517952 0.250000
vt 0.548802 0.250000
vt 0.548763 0.250000
vt 0.281251 0.918145
vt 0.375000 0.000324
vt 0.375000 0.000324
vt 0.375000 0.000324
vt 0.531646 0.250000
vt 0.495569 0.250000
vt 0.281251 0.918145
vt 0.250000 0.532527
vt 0.245288 0.918145
vt 0.664408 0.556687
vt 0.654722 0.565963
vt 0.647792 0.581049
vt 0.648757 0.576029
vt 0.645892 0.581049
vt 0.645832 0.729781
vt 0.645832 0.581049
vt 0.693325 0.541883
vt 0.677442 0.548556
vt 0.708485 0.537735
vt 0.708485 0.537734
vt 0.708485 0.537735
vt 0.711564 0.536924
vt 0.708486 0.537734
vt 0.725680 0.534816
vt 0.854409 0.729781
vt 0.854409 0.581049
vt 0.853665 0.581049
vt 0.852169 0.576029
vt 0.846205 0.565963
vt 0.775777 0.534816
vt 0.807601 0.541883
vt 0.789481 0.536924
vt 0.823484 0.548556
vt 0.147523 0.581049
vt 0.145623 0.581049
vt 0.354168 0.729781
vt 0.145591 0.581049
vt 0.145591 0.729781
vt 0.354168 0.581049
vt 0.353450 0.581049
vt 0.351954 0.576029
vt 0.345990 0.565963
vt 0.154454 0.565963
vt 0.148489 0.576029
vt 0.177174 0.548556
vt 0.164139 0.556687
vt 0.209608 0.537354
vt 0.193057 0.541883
vt 0.209609 0.537354
vt 0.209608 0.537354
vt 0.211240 0.536924
vt 0.209609 0.537353
vt 0.275618 0.534816
vt 0.289266 0.536924
vt 0.307387 0.541883
vt 0.323269 0.548556
vt 0.336304 0.556687
vn 0.0000 1.0000 0.0000
vn 0.0000 -1.0000 0.0000
vn 0.0000 0.0000 -1.0000
vn 0.0846 -0.9565 0.2790
vn 0.1374 -0.8810 -0.4528
vn 0.0846 -0.9566 -0.2790
vn 0.0000 -0.9408 -0.3390
vn 0.0000 -0.8916 -0.4529
vn 0.1748 -0.8961 -0.4080
vn 0.1298 -0.9570 -0.2595
vn 0.0938 -0.2890 -0.9527
vn 0.0976 -0.0975 -0.9904
vn 0.0286 -0.9566 -0.2902
vn 0.0464 -0.8810 -0.4709
vn 0.0624 -0.7715 -0.6332
vn 0.0759 -0.6326 -0.7708
vn 0.0865 -0.4696 -0.8786
vn -0.0464 -0.8810 -0.4709
vn -0.0624 -0.7715 -0.6332
vn -0.0759 -0.6326 -0.7708
vn -0.0865 -0.4696 -0.8786
vn -0.0938 -0.2890 -0.9527
vn -0.0975 -0.0975 -0.9904
vn -0.0286 -0.9566 -0.2902
vn 0.0000 0.0000 1.0000
vn -0.0846 -0.9565 -0.2790
vn -0.1374 -0.8810 0.4528
vn -0.0846 -0.9565 0.2790
vn 0.0000 -0.9726 0.2326
vn -0.0585 -0.9018 0.4282
vn -0.2315 -0.8637 0.4477
vn -0.1306 -0.9564 0.2611
vn -0.0938 -0.2890 0.9527
vn -0.0975 -0.0975 0.9904
vn -0.0286 -0.9566 0.2902
vn -0.0464 -0.8810 0.4709
vn -0.0624 -0.7715 0.6332
vn -0.0759 -0.6326 0.7708
vn -0.0865 -0.4696 0.8786
vn 0.0464 -0.8810 0.4709
vn 0.0624 -0.7715 0.6332
vn 0.0759 -0.6326 0.7708
vn 0.0865 -0.4696 0.8786
vn 0.0938 -0.2890 0.9527
vn 0.0976 -0.0975 0.9904
vn 0.0286 -0.9565 0.2902
vn -1.0000 -0.0000 -0.0000
vn 1.0000 0.0000 0.0000
vn 0.0000 -1.0000 0.0004
vn 0.0000 -0.8220 0.5695
vn 0.0000 -1.0000 -0.0002
vn 0.0000 -1.0000 0.0001
vn 0.0000 -0.8220 -0.5695
vn 0.0000 -1.0000 -0.0001
vn 0.0000 -0.9727 -0.2323
vn 0.0000 -0.8826 -0.4702
vn 0.1842 -0.8881 -0.4210
vn -0.1630 -0.5587 -0.8132
vn 0.1302 -0.9522 -0.2763
vn 0.0975 -0.0975 -0.9904
vn 0.0286 -0.9565 -0.2902
vn -0.0976 -0.0975 -0.9904
vn -0.0286 -0.9565 -0.2902
vn -0.0846 -0.9566 0.2790
vn 0.0000 -0.9727 0.2323
vn 0.0000 -0.8773 0.4799
vn -0.1914 -0.8720 0.4506
vn -0.1106 -0.8503 0.5145
vn -0.1298 -0.9525 0.2755
vn -0.0286 -0.9565 0.2902
vn 0.0975 -0.0975 0.9904
vn -0.9943 0.1065 0.0000
vn -1.0000 -0.0013 0.0000
vn 1.0000 0.0089 0.0000
vn 0.9991 -0.0413 0.0000
s off
f 36/1/1 62/2/1 63/3/1
f 64/4/2 65/5/2 38/6/2
f 32/7/3 39/8/3 36/9/3
f 67/10/2 9/11/2 32/12/2
f 26/13/4 65/14/4 69/15/4
f 71/16/5 1/17/5 70/18/5
f 13/19/6 71/16/6 64/20/6
f 10/21/7 13/19/7 14/22/7
f 70/18/8 10/21/8 72/23/8
f 73/24/9 72/25/9 10/26/9
f 10/26/10 12/27/10 2/28/10
f 7/29/11 75/30/11 76/31/11
f 8/32/12 67/33/12 75/30/12
f 3/34/13 12/27/13 11/35/13
f 74/36/14 3/34/14 4/37/14
f 4/37/15 78/38/15 77/39/15
f 5/40/16 79/41/16 78/38/16
f 6/42/17 76/31/17 79/41/17
f 42/43/18 3/34/18 43/44/18
f 44/45/19 4/37/19 42/43/19
f 5/40/20 45/46/20 6/42/20
f 6/42/21 46/47/21 7/29/21
f 7/29/22 47/48/22 8/32/22
f 8/32/23 40/49/23 9/50/23
f 11/35/24 25/51/24 48/52/24
f 33/53/25 80/54/25 62/55/25
f 81/56/2 33/57/2 23/58/2
f 34/59/2 49/60/2 51/61/2
f 80/62/2 33/57/2 81/56/2
f 68/63/2 31/64/2 66/65/2
f 39/66/2 32/67/2 41/68/2
f 25/69/26 37/70/26 48/71/26
f 15/72/27 52/73/27 53/74/27
f 28/75/28 53/74/28 38/76/28
f 24/77/29 28/75/29 29/78/29
f 15/72/30 54/79/30 52/73/30
f 16/80/31 56/81/31 54/82/31
f 24/83/32 30/84/32 16/80/32
f 21/85/33 58/86/33 57/87/33
f 22/88/34 50/89/34 58/86/34
f 17/90/35 30/84/35 27/91/35
f 55/92/36 17/90/36 18/93/36
f 18/93/37 60/94/37 59/95/37
f 19/96/38 61/97/38 60/94/38
f 20/98/39 57/87/39 61/97/39
f 83/99/40 17/90/40 84/100/40
f 85/101/41 18/93/41 83/99/41
f 86/102/42 19/96/42 85/101/42
f 87/103/43 20/98/43 86/102/43
f 88/104/44 21/85/44 87/103/44
f 82/105/45 22/88/45 88/104/45
f 27/91/46 69/106/46 17/90/46
f 40/107/47 45/108/47 48/109/47
f 64/110/48 82/111/48 69/112/48
f 36/1/1 35/113/1 62/2/1
f 65/5/49 26/114/49 27/115/49
f 27/115/50 30/116/50 29/117/50
f 29/117/2 28/118/2 38/6/2
f 38/6/2 37/119/2 64/4/2
f 37/119/51 25/120/51 11/121/51
f 14/122/52 37/119/52 11/121/52
f 11/121/53 12/123/53 14/122/53
f 14/122/2 13/124/2 64/4/2
f 29/117/52 38/6/52 65/5/52
f 37/119/2 14/122/2 64/4/2
f 65/5/54 27/115/54 29/117/54
f 36/9/3 63/125/3 31/126/3
f 63/125/3 66/127/3 31/126/3
f 31/126/3 32/7/3 36/9/3
f 40/128/2 41/129/2 9/11/2
f 41/129/2 32/12/2 9/11/2
f 32/12/2 31/130/2 67/10/2
f 31/130/2 68/131/2 67/10/2
f 13/19/6 1/17/6 71/16/6
f 10/21/55 1/17/55 13/19/55
f 70/18/56 1/17/56 10/21/56
f 10/26/57 2/28/57 73/24/57
f 2/28/58 74/36/58 73/24/58
f 10/26/59 14/132/59 12/27/59
f 7/29/11 8/32/11 75/30/11
f 8/32/60 9/50/60 67/33/60
f 3/34/61 2/28/61 12/27/61
f 4/37/14 77/39/14 74/36/14
f 74/36/14 2/28/14 3/34/14
f 4/37/15 5/40/15 78/38/15
f 5/40/16 6/42/16 79/41/16
f 6/42/17 7/29/17 76/31/17
f 42/43/18 4/37/18 3/34/18
f 44/45/19 5/40/19 4/37/19
f 5/40/20 44/45/20 45/46/20
f 6/42/21 45/46/21 46/47/21
f 7/29/22 46/47/22 47/48/22
f 8/32/62 47/48/62 40/49/62
f 48/52/63 43/44/63 3/34/63
f 3/34/63 11/35/63 48/52/63
f 62/55/25 35/133/25 34/134/25
f 35/133/25 49/135/25 34/134/25
f 34/134/25 33/53/25 62/55/25
f 34/59/2 51/61/2 50/136/2
f 23/58/2 82/137/2 81/56/2
f 34/59/2 50/136/2 33/57/2
f 50/136/2 23/58/2 33/57/2
f 28/75/64 15/72/64 53/74/64
f 24/77/65 15/72/65 28/75/65
f 15/72/66 24/77/66 54/79/66
f 54/82/67 24/83/67 16/80/67
f 16/80/68 55/92/68 56/81/68
f 24/83/69 29/138/69 30/84/69
f 21/85/33 22/88/33 58/86/33
f 22/88/34 23/139/34 50/89/34
f 17/90/70 16/80/70 30/84/70
f 18/93/36 59/95/36 55/92/36
f 55/92/36 16/80/36 17/90/36
f 18/93/37 19/96/37 60/94/37
f 19/96/38 20/98/38 61/97/38
f 20/98/39 21/85/39 57/87/39
f 83/99/40 18/93/40 17/90/40
f 85/101/41 19/96/41 18/93/41
f 86/102/42 20/98/42 19/96/42
f 87/103/43 21/85/43 20/98/43
f 88/104/44 22/88/44 21/85/44
f 82/105/71 23/139/71 22/88/71
f 26/140/46 69/106/46 27/91/46
f 69/106/46 84/100/46 17/90/46
f 61/141/47 57/142/47 50/143/47
f 57/142/47 58/144/47 50/143/47
f 50/143/47 51/145/47 35/146/47
f 51/145/47 49/147/47 35/146/47
f 59/148/47 60/149/47 55/150/47
f 60/149/47 61/141/47 50/143/47
f 55/150/47 60/149/47 50/143/47
f 54/151/72 56/152/72 55/150/72
f 53/153/47 52/154/47 38/155/47
f 52/154/47 54/151/47 38/155/47
f 54/151/73 55/150/73 50/143/73
f 50/143/47 35/146/47 36/156/47
f 36/156/47 39/157/47 41/158/47
f 40/107/47 47/159/47 46/160/47
f 36/156/47 41/158/47 40/107/47
f 54/151/47 50/143/47 38/155/47
f 50/143/47 36/156/47 40/107/47
f 48/109/47 37/161/47 38/155/47
f 42/162/47 43/163/47 48/109/47
f 45/108/47 44/164/47 48/109/47
f 44/164/47 42/162/47 48/109/47
f 40/107/47 46/160/47 45/108/47
f 50/143/47 40/107/47 38/155/47
f 48/109/47 38/155/47 40/107/47
f 67/165/48 68/166/48 62/167/48
f 68/166/48 66/168/48 62/167/48
f 66/168/48 63/169/48 62/167/48
f 62/167/48 80/170/48 81/171/48
f 82/111/48 88/172/48 87/173/48
f 62/167/48 81/171/48 82/111/48
f 76/174/48 75/175/48 67/165/48
f 78/176/48 79/177/48 74/178/48
f 79/177/48 76/174/48 74/178/48
f 74/178/48 77/179/48 78/176/48
f 72/180/74 73/181/74 74/178/74
f 71/182/75 70/183/75 72/180/75
f 65/184/48 64/110/48 69/112/48
f 64/110/48 71/182/48 72/180/48
f 84/185/48 69/112/48 83/186/48
f 83/186/48 69/112/48 85/187/48
f 85/187/48 69/112/48 82/111/48
f 87/173/48 86/188/48 82/111/48
f 86/188/48 85/187/48 82/111/48
f 62/167/48 82/111/48 67/165/48
f 67/165/48 64/110/48 76/174/48
f 64/110/48 72/180/48 76/174/48
f 72/180/48 74/178/48 76/174/48
f 67/165/48 82/111/48 64/110/48
